# Blender 4.5.4 LTS
# www.blender.org
mtllib left_mas.mtl
o masunya
v -2.283393 -0.361441 0.287954
v -2.265906 -0.198371 0.469395
v -2.147723 -0.183885 0.115301
v -2.130236 -0.020815 0.296742
v -1.838842 -0.398593 0.541993
v -2.094049 -0.286130 0.523653
v -2.331709 -0.207225 0.442267
v -2.368165 -0.243390 0.393349
v -2.342084 -0.303974 0.334618
v -2.228940 -0.194628 0.134353
v -2.296124 -0.234559 0.177504
v -2.309433 -0.299971 0.236788
v -2.284268 -0.106850 0.455167
v -2.269678 -0.029490 0.409178
v -2.203775 -0.001506 0.352732
v -2.176250 -0.003770 0.244430
v -2.202764 -0.026925 0.182862
v -2.186625 -0.100519 0.136781
v -1.680392 -0.249130 0.125376
v -1.957700 -0.218693 0.120671
v -2.029113 -0.467713 0.317899
v -1.762768 -0.557866 0.284552
v -2.022636 -0.037111 0.326425
v -1.756466 -0.089858 0.375327
v -1.796252 -0.564219 0.366071
v -1.825558 -0.534155 0.443970
v -1.837842 -0.477144 0.506815
v -2.070721 -0.457197 0.389305
v -2.107093 -0.415305 0.453799
v -2.106554 -0.356996 0.502843
v -2.414482 -0.175579 0.291174
v -2.449186 -0.100047 0.349425
v -2.403425 -0.072468 0.405903
v -2.409815 -0.095221 0.231462
v -2.445391 -0.011433 0.289674
v -2.398163 0.013429 0.352353
v -2.328696 -0.063308 0.182004
v -2.358792 0.018255 0.234389
v -2.317639 0.039803 0.296732
v -2.064814 -0.064452 0.397081
v -2.102674 -0.121521 0.459616
v -2.104220 -0.201865 0.505914
v -1.790490 -0.136320 0.449067
v -1.821222 -0.212151 0.506426
v -1.835526 -0.305107 0.540183
v -2.021599 -0.432901 0.244124
v -2.014067 -0.369296 0.178860
v -1.982192 -0.295488 0.135290
v -1.738007 -0.509277 0.210172
v -1.716539 -0.431320 0.152173
v -1.692972 -0.340490 0.126545
v -1.979859 -0.140357 0.138362
v -2.009648 -0.075512 0.184676
v -2.015692 -0.040157 0.251900
v -1.690655 -0.168453 0.152424
v -1.712204 -0.109317 0.214629
v -1.732245 -0.081378 0.293168
v 0.878519 -0.663291 0.417151
v 0.852023 -0.610186 0.480551
v 0.831575 -0.533294 0.516007
v 0.818792 -0.264344 0.422223
v 0.840247 -0.210747 0.347711
v 0.957604 -0.618410 0.181035
v 0.924372 -0.272569 0.122706
v 0.913257 -0.685992 0.338420
v 0.943573 -0.671946 0.256047
v 0.807440 -0.346028 0.480208
v 0.814050 -0.440694 0.514238
v 0.961529 -0.536788 0.122550
v 0.962345 -0.442060 0.089020
v 0.952245 -0.349399 0.087751
v 0.890450 -0.219525 0.185606
v 0.863138 -0.196762 0.264838
v -1.431626 -0.588362 0.489881
v -1.457455 -0.535503 0.553003
v -1.477267 -0.458967 0.588320
v -1.490530 -0.191323 0.494965
v -1.468637 -0.137983 0.420839
v -1.352383 -0.543677 0.254923
v -1.385458 -0.199497 0.196885
v -1.396520 -0.610940 0.411565
v -1.365811 -0.596947 0.329619
v -1.502367 -0.272609 0.552637
v -1.495249 -0.366813 0.586531
v -1.349011 -0.462461 0.196681
v -1.347665 -0.368188 0.163358
v -1.357182 -0.275963 0.162139
v -1.419752 -0.146708 0.259437
v -1.446393 -0.124060 0.338323
v -0.357176 -0.697665 0.469586
v -0.326664 -0.683645 0.387426
v -0.463008 -0.358517 0.611016
v -0.456144 -0.452952 0.644977
v -0.309286 -0.548823 0.254209
v -0.308204 -0.454322 0.220782
v -0.318013 -0.361879 0.219538
v -0.380195 -0.232315 0.317115
v -0.407172 -0.209609 0.396174
v -0.392098 -0.675025 0.548109
v -0.418261 -0.622043 0.611370
v -0.438390 -0.545329 0.646757
v -0.451414 -0.277032 0.553187
v -0.429740 -0.223564 0.478868
v -0.312934 -0.630242 0.312572
v -0.346087 -0.285231 0.254389
v -0.911862 -0.641763 0.528337
v -0.937858 -0.588843 0.591529
v -0.957829 -0.512218 0.626880
v -0.970972 -0.244247 0.533418
v -0.949188 -0.190843 0.459196
v -0.832659 -0.597030 0.293090
v -0.865773 -0.252434 0.234979
v -0.876848 -0.664372 0.449917
v -0.846237 -0.650366 0.367865
v -0.982688 -0.325633 0.591168
v -0.975696 -0.419952 0.625096
v -0.829148 -0.515712 0.234787
v -0.827935 -0.421325 0.201412
v -0.837597 -0.328991 0.200180
v -0.899974 -0.199581 0.297618
v -0.926783 -0.176905 0.376590
v 0.278041 -0.709091 0.407897
v 0.308455 -0.695058 0.325631
v 0.172216 -0.369535 0.549506
v 0.178953 -0.464086 0.583502
v 0.326122 -0.560068 0.192273
v 0.327070 -0.465454 0.158795
v 0.317116 -0.372902 0.157538
v 0.255128 -0.243183 0.255255
v 0.227983 -0.220448 0.334400
v 0.243210 -0.686421 0.486524
v 0.216881 -0.633377 0.549855
v 0.196592 -0.556574 0.585276
v 0.183689 -0.287951 0.491599
v 0.205254 -0.234418 0.417184
v 0.322335 -0.641589 0.250697
v 0.289142 -0.296163 0.192442
vn -0.1130 -0.9929 0.0371
vn -0.1507 -0.8867 0.4370
vn -0.2486 -0.8623 0.4411
vn -0.2291 -0.9731 0.0249
vn -0.1558 -0.6151 0.7729
vn -0.2215 -0.5884 0.7776
vn -0.4205 -0.7281 0.5414
vn -0.4189 -0.8894 0.1832
vn -0.3318 -0.4289 0.8402
vn -0.1269 -0.2108 0.9692
vn -0.1509 -0.1851 0.9711
vn -0.1915 -0.0430 0.9806
vn -0.3111 0.0145 0.9503
vn -0.5104 -0.1976 0.8369
vn -0.7096 -0.5175 0.4782
vn -0.6953 -0.7149 0.0741
vn -0.3641 -0.8863 -0.2861
vn -0.4796 -0.8309 -0.2823
vn -0.1708 -0.9041 -0.3916
vn -0.0585 -0.9199 -0.3877
vn -0.8701 -0.4057 -0.2798
vn -0.9482 -0.0875 0.3054
vn -0.7669 0.6075 -0.2070
vn -0.7157 -0.0427 -0.6971
vn -0.4661 0.3168 0.8260
vn -0.2924 0.8064 0.5140
vn -0.2294 0.7844 -0.5763
vn -0.3446 0.2842 -0.8947
vn -0.0108 0.9988 0.0484
vn -0.5160 -0.6268 -0.5839
vn -0.1646 0.3477 0.9231
vn -0.0053 0.6715 0.7410
vn 0.1790 0.8950 0.4085
vn 0.2360 0.9653 0.1116
vn 0.2075 0.9490 -0.2373
vn 0.0474 0.7101 -0.7025
vn -0.0654 0.3578 -0.9315
vn -0.2735 -0.1725 -0.9463
vn -0.0680 -0.0029 -0.9977
vn -0.4365 -0.4119 -0.7999
vn 0.1376 0.8020 0.5812
vn 0.0518 0.5743 0.8170
vn -0.0015 0.5011 0.8654
vn 0.0519 0.7357 0.6753
vn -0.0803 0.2894 0.9538
vn -0.0635 0.2121 0.9752
vn 0.1719 0.9577 0.2309
vn 0.1131 0.9303 0.3489
vn -0.2824 -0.7180 -0.6362
vn -0.2146 -0.5293 -0.8208
vn -0.0522 -0.4755 -0.8782
vn -0.1105 -0.7152 -0.6902
vn -0.1115 -0.3073 -0.9450
vn 0.0108 -0.2019 -0.9793
vn 0.0028 0.0223 -0.9997
vn 0.0742 0.1305 -0.9887
vn 0.0954 0.4459 -0.8900
vn 0.1618 0.7637 -0.6249
vn 0.1630 0.8454 -0.5086
vn 0.1300 0.5308 -0.8375
vn 0.1884 0.9637 -0.1890
vn 0.1595 0.9825 -0.0960
vn 0.0955 0.7227 0.6845
vn 0.0616 0.5108 0.8575
vn 0.3252 0.3335 0.8849
vn 0.4372 0.6148 0.6564
vn 0.0793 0.2635 0.9614
vn 0.3381 0.1008 0.9357
vn 0.0965 -0.1020 0.9901
vn 0.3594 -0.1796 0.9157
vn 0.0564 0.9248 0.3763
vn 0.4091 0.8256 0.3887
vn -0.0651 -0.6545 -0.7533
vn -0.0451 -0.4544 -0.8897
vn 0.3659 -0.5512 -0.7499
vn 0.3129 -0.7150 -0.6252
vn -0.0550 -0.1824 -0.9817
vn 0.3588 -0.2825 -0.8896
vn -0.0607 0.1677 -0.9840
vn 0.3679 0.0821 -0.9263
vn -0.0288 -0.8985 -0.4381
vn 0.3749 -0.8832 -0.2820
vn -0.0988 0.6162 -0.7814
vn -0.0484 0.8671 -0.4958
vn 0.3799 0.8407 -0.3860
vn 0.3196 0.6480 -0.6913
vn -0.0235 0.9978 -0.0613
vn 0.3624 0.9292 0.0728
vn 0.1469 0.6127 -0.7765
vn 0.1108 0.2057 -0.9723
vn 0.0752 0.9095 0.4089
vn 0.1258 0.9919 -0.0182
vn 0.1499 0.8914 -0.4278
vn -0.0031 -0.7131 -0.7011
vn 0.0740 -0.1693 -0.9828
vn 0.0394 -0.4623 -0.8858
vn 0.0175 0.6992 0.7147
vn -0.0798 0.1737 0.9816
vn -0.0320 0.4599 0.8874
vn -0.0555 -0.9215 -0.3844
vn -0.0896 -0.9958 0.0183
vn -0.1003 -0.6068 0.7885
vn -0.0861 -0.2233 0.9709
vn -0.0995 -0.8885 0.4479
vn 0.4795 -0.3786 0.7917
vn 0.4797 -0.7161 0.5069
vn 0.4690 -0.8766 0.1074
vn 0.0127 -0.9964 0.0833
vn 0.0481 -0.8719 0.4872
vn -0.0184 -0.8870 0.4614
vn -0.0264 -0.9984 0.0506
vn 0.0835 -0.6214 0.7790
vn 0.0142 -0.6054 0.7958
vn 0.0466 -0.2091 0.9768
vn -0.0315 -0.9200 -0.3907
vn 0.0687 0.2390 -0.9686
vn 0.1061 0.6219 -0.7759
vn 0.0034 0.5720 -0.8202
vn -0.0527 0.1972 -0.9790
vn 0.0860 0.9962 -0.0137
vn 0.0600 0.9141 0.4011
vn 0.0322 0.9085 0.4166
vn 0.0415 0.9991 -0.0049
vn 0.0979 0.9005 -0.4236
vn 0.0156 0.8929 -0.4501
vn -0.0077 -0.7091 -0.7051
vn -0.0532 -0.7410 -0.6694
vn 0.0383 -0.1516 -0.9877
vn -0.0671 -0.1788 -0.9816
vn 0.0099 -0.4426 -0.8967
vn -0.0729 -0.4618 -0.8840
vn 0.0218 0.7112 0.7027
vn 0.0237 0.6829 0.7302
vn -0.0315 0.1541 0.9876
vn 0.0210 0.1308 0.9912
vn -0.0033 0.4410 0.8975
vn 0.0326 0.4088 0.9121
vt 0.575175 0.968310
vt 0.574309 0.978037
vt 0.572267 0.978060
vt 0.573157 0.968380
vt 0.574849 0.988030
vt 0.572832 0.988004
vt 0.557140 0.978366
vt 0.558524 0.969532
vt 0.558228 0.987427
vt 0.576376 0.996608
vt 0.574381 0.996540
vt 0.560288 0.995039
vt 0.551444 0.993120
vt 0.547603 0.987259
vt 0.545764 0.978845
vt 0.547879 0.970572
vt 0.560825 0.962610
vt 0.551910 0.964994
vt 0.574975 0.960645
vt 0.576973 0.960538
vt 0.071030 0.293332
vt 0.070251 0.302179
vt 0.060472 0.301584
vt 0.061804 0.292292
vt 0.069950 0.311162
vt 0.060667 0.311080
vt 0.052220 0.301192
vt 0.053919 0.292396
vt 0.052839 0.310225
vt 0.079350 0.288823
vt 0.080011 0.294537
vt 0.073006 0.286337
vt 0.080011 0.302891
vt 0.078998 0.311266
vt 0.077642 0.317020
vt 0.071049 0.318648
vt 0.626219 0.763795
vt 0.627036 0.756045
vt 0.635422 0.757825
vt 0.635132 0.766377
vt 0.643768 0.756174
vt 0.644050 0.763933
vt 0.979499 0.815502
vt 0.986717 0.822919
vt 0.984077 0.827402
vt 0.978185 0.824223
vt 0.970590 0.812884
vt 0.969765 0.822488
vt 0.961747 0.815052
vt 0.961529 0.823801
vt 0.601864 0.660433
vt 0.603121 0.652394
vt 0.610340 0.659904
vt 0.607744 0.663828
vt 0.593445 0.658653
vt 0.594210 0.649787
vt 0.585195 0.660205
vt 0.585356 0.652151
vt 0.644592 0.743592
vt 0.635660 0.744311
vt 0.635846 0.727693
vt 0.645635 0.727575
vt 0.626649 0.743453
vt 0.625958 0.727423
vt 0.649463 0.752804
vt 0.651751 0.742851
vt 0.621262 0.752586
vt 0.619235 0.742600
vt 0.617649 0.727297
vt 0.653641 0.727575
vt 0.584101 0.672947
vt 0.592906 0.672348
vt 0.592569 0.689033
vt 0.582921 0.689019
vt 0.601976 0.673192
vt 0.602524 0.689287
vt 0.579649 0.663444
vt 0.577241 0.673451
vt 0.609635 0.673894
vt 0.611114 0.689242
vt 0.575258 0.688752
vt 0.960400 0.836845
vt 0.969187 0.836530
vt 0.968831 0.853244
vt 0.959204 0.852923
vt 0.978262 0.837298
vt 0.978792 0.853420
vt 0.956003 0.826690
vt 0.953581 0.836757
vt 0.985951 0.837578
vt 0.987415 0.852902
vt 0.951586 0.851994
vt 0.645750 0.723833
vt 0.635877 0.723900
vt 0.635882 0.723358
vt 0.645766 0.723299
vt 0.625904 0.723680
vt 0.625896 0.723145
vt 0.617524 0.723604
vt 0.617506 0.723076
vt 0.653823 0.723884
vt 0.653850 0.723357
vt 0.582796 0.692759
vt 0.592527 0.692825
vt 0.592521 0.693367
vt 0.582778 0.693293
vt 0.602568 0.693030
vt 0.602574 0.693564
vt 0.611231 0.692933
vt 0.611248 0.693460
vt 0.575068 0.692438
vt 0.575041 0.692965
vt 0.959077 0.856626
vt 0.968787 0.857000
vt 0.968781 0.857536
vt 0.959059 0.857155
vt 0.978834 0.857127
vt 0.978840 0.857656
vt 0.987531 0.856555
vt 0.987548 0.857076
vt 0.951395 0.855638
vt 0.951368 0.856159
vt 0.959131 0.855039
vt 0.951477 0.854076
vt 0.987482 0.854989
vt 0.978816 0.855538
vt 0.968806 0.855390
vt 0.582850 0.691156
vt 0.575149 0.690858
vt 0.611181 0.691351
vt 0.602549 0.691426
vt 0.592545 0.691200
vt 0.645701 0.725437
vt 0.653745 0.725466
vt 0.617578 0.725186
vt 0.625927 0.725284
vt 0.635864 0.725526
vt 0.577473 0.960510
vt 0.575679 0.968292
vt 0.575353 0.988037
vt 0.576875 0.996625
vt 0.574820 0.978031
vt 0.576865 0.988057
vt 0.576351 0.978014
vt 0.577193 0.968239
vt 0.578971 0.960430
vt 0.576688 0.968257
vt 0.575841 0.978020
vt 0.575330 0.978025
vt 0.576184 0.968275
vt 0.576361 0.988050
vt 0.575857 0.988043
vt 0.577873 0.996659
vt 0.577374 0.996642
vt 0.578472 0.960457
vt 0.577972 0.960484
vt 0.951450 0.854597
vt 0.959113 0.855568
vt 0.959095 0.856097
vt 0.951422 0.855118
vt 0.978822 0.856068
vt 0.987498 0.855511
vt 0.987515 0.856033
vt 0.978828 0.856597
vt 0.968800 0.855927
vt 0.968793 0.856463
vt 0.575122 0.691385
vt 0.582832 0.691690
vt 0.582814 0.692225
vt 0.575095 0.691911
vt 0.602555 0.691960
vt 0.611198 0.691879
vt 0.611215 0.692406
vt 0.602562 0.692495
vt 0.592539 0.691742
vt 0.592533 0.692283
vt 0.653771 0.724938
vt 0.645717 0.724902
vt 0.645734 0.724368
vt 0.653797 0.724411
vt 0.625919 0.724749
vt 0.617560 0.724659
vt 0.617542 0.724131
vt 0.625911 0.724215
vt 0.635868 0.724984
vt 0.635873 0.724442
vt 0.578372 0.996675
s 1
usemtl Material.001
f 81/1/1 74/2/2 26/3/3 25/4/4
f 74/2/2 75/5/5 27/6/6 26/3/3
f 25/4/4 26/3/3 29/7/7 28/8/8
f 26/3/3 27/6/6 30/9/9 29/7/7
f 75/5/5 76/10/10 5/11/11 27/6/6
f 27/6/6 5/11/11 6/12/12 30/9/9
f 30/9/9 6/12/12 2/13/13 7/14/14
f 29/7/7 30/9/9 7/14/14 8/15/15
f 28/8/8 29/7/7 8/15/15 9/16/16
f 21/17/17 28/8/8 9/16/16 1/18/18
f 22/19/19 25/4/4 28/8/8 21/17/17
f 82/20/20 81/1/1 25/4/4 22/19/19
f 31/21/21 32/22/22 35/23/23 34/24/24
f 32/22/22 33/25/25 36/26/26 35/23/23
f 34/24/24 35/23/23 38/27/27 37/28/28
f 35/23/23 36/26/26 39/29/29 38/27/27
f 1/30/18 9/31/16 31/21/21 12/32/30
f 9/31/16 8/33/15 32/22/22 31/21/21
f 8/33/15 7/34/14 33/25/25 32/22/22
f 7/34/14 2/35/13 13/36/31 33/25/25
f 33/37/25 13/38/31 14/39/32 36/40/26
f 36/40/26 14/39/32 15/41/33 39/42/29
f 39/43/29 15/44/33 4/45/34 16/46/35
f 38/47/27 39/43/29 16/46/35 17/48/36
f 37/49/28 38/47/27 17/48/36 18/50/37
f 10/51/38 37/52/28 18/53/37 3/54/39
f 11/55/40 34/56/24 37/52/28 10/51/38
f 12/57/30 31/58/21 34/56/24 11/55/40
f 40/59/41 41/60/42 44/61/43 43/62/44
f 41/60/42 42/63/45 45/64/46 44/61/43
f 4/65/34 15/41/33 40/59/41 23/66/47
f 15/41/33 14/39/32 41/60/42 40/59/41
f 14/39/32 13/38/31 42/63/45 41/60/42
f 13/38/31 2/67/13 6/68/12 42/63/45
f 42/63/45 6/68/12 5/69/11 45/64/46
f 23/66/47 40/59/41 43/62/44 24/70/48
f 46/71/49 47/72/50 50/73/51 49/74/52
f 47/72/50 48/75/53 51/76/54 50/73/51
f 1/77/18 12/57/30 46/71/49 21/78/17
f 12/57/30 11/55/40 47/72/50 46/71/49
f 11/55/40 10/51/38 48/75/53 47/72/50
f 10/51/38 3/54/39 20/79/55 48/75/53
f 48/75/53 20/79/55 19/80/56 51/76/54
f 21/78/17 46/71/49 49/74/52 22/81/19
f 52/82/57 53/83/58 56/84/59 55/85/60
f 53/83/58 54/86/61 57/87/62 56/84/59
f 3/88/39 18/50/37 52/82/57 20/89/55
f 18/50/37 17/48/36 53/83/58 52/82/57
f 17/48/36 16/46/35 54/86/61 53/83/58
f 16/46/35 4/45/34 23/90/47 54/86/61
f 54/86/61 23/90/47 24/91/48 57/87/62
f 20/89/55 52/82/57 55/85/60 19/92/56
f 134/93/63 124/94/64 67/95/65 61/96/66
f 124/94/64 125/97/67 68/98/68 67/95/65
f 125/97/67 133/99/69 60/100/70 68/98/68
f 135/101/71 134/93/63 61/96/66 62/102/72
f 136/103/73 126/104/74 69/105/75 63/106/76
f 126/104/74 127/107/77 70/108/78 69/105/75
f 127/107/77 128/109/79 71/110/80 70/108/78
f 123/111/81 136/103/73 63/106/76 66/112/82
f 137/113/83 129/114/84 72/115/85 64/116/86
f 129/114/84 130/117/87 73/118/88 72/115/85
f 130/117/87 135/119/71 62/120/72 73/118/88
f 128/121/79 137/113/83 64/116/86 71/122/80
f 19/92/56 55/85/60 80/123/89 87/124/90
f 57/87/62 24/91/48 78/125/91 89/126/92
f 56/84/59 57/87/62 89/126/92 88/127/93
f 55/85/60 56/84/59 88/127/93 80/123/89
f 22/81/19 49/74/52 79/128/94 82/129/20
f 51/76/54 19/80/56 87/130/90 86/131/95
f 50/73/51 51/76/54 86/131/95 85/132/96
f 49/74/52 50/73/51 85/132/96 79/128/94
f 24/70/48 43/62/44 77/133/97 78/134/91
f 45/64/46 5/69/11 76/135/10 84/136/98
f 44/61/43 45/64/46 84/136/98 83/137/99
f 43/62/44 44/61/43 83/137/99 77/133/97
f 114/138/100 113/139/101 81/1/1 82/20/20
f 107/140/102 108/141/103 76/10/10 75/5/5
f 106/142/104 107/140/102 75/5/5 74/2/2
f 113/139/101 106/142/104 74/2/2 81/1/1
f 67/95/65 68/98/68 60/100/70 59/143/105 58/144/106 65/145/107 66/146/82 63/106/76 69/105/75 70/108/78 71/110/80 64/116/86 72/115/85 73/118/88 62/120/72 61/96/66
f 122/147/108 131/148/109 99/149/110 90/150/111
f 131/148/109 132/151/112 100/152/113 99/149/110
f 132/151/112 133/153/69 101/154/114 100/152/113
f 123/155/81 122/147/108 90/150/111 91/156/115
f 119/157/116 112/158/117 105/159/118 96/160/119
f 121/161/120 110/162/121 103/163/122 98/164/123
f 120/165/124 121/161/120 98/164/123 97/166/125
f 112/158/117 120/165/124 97/166/125 105/159/118
f 114/167/100 111/168/126 104/169/127 91/170/115
f 118/171/128 119/172/116 96/173/119 95/174/129
f 117/175/130 118/171/128 95/174/129 94/176/131
f 111/168/126 117/175/130 94/176/131 104/169/127
f 110/177/121 109/178/132 102/179/133 103/180/122
f 116/181/134 108/182/103 101/183/114 93/184/135
f 115/185/136 116/181/134 93/184/135 92/186/137
f 109/178/132 115/185/136 92/186/137 102/179/133
f 77/133/97 83/137/99 115/185/136 109/178/132
f 83/137/99 84/136/98 116/181/134 115/185/136
f 84/136/98 76/135/10 108/182/103 116/181/134
f 78/134/91 77/133/97 109/178/132 110/177/121
f 79/128/94 85/132/96 117/175/130 111/168/126
f 85/132/96 86/131/95 118/171/128 117/175/130
f 86/131/95 87/130/90 119/172/116 118/171/128
f 82/129/20 79/128/94 111/168/126 114/167/100
f 80/123/89 88/127/93 120/165/124 112/158/117
f 88/127/93 89/126/92 121/161/120 120/165/124
f 89/126/92 78/125/91 110/162/121 121/161/120
f 87/124/90 80/123/89 112/158/117 119/157/116
f 90/150/111 99/149/110 106/142/104 113/139/101
f 99/149/110 100/152/113 107/140/102 106/142/104
f 100/152/113 101/154/114 108/141/103 107/140/102
f 91/156/115 90/150/111 113/139/101 114/138/100
f 66/146/82 65/145/107 122/147/108 123/155/81
f 59/143/105 60/187/70 133/153/69 132/151/112
f 58/144/106 59/143/105 132/151/112 131/148/109
f 65/145/107 58/144/106 131/148/109 122/147/108
f 96/160/119 105/159/118 137/113/83 128/121/79
f 98/164/123 103/163/122 135/119/71 130/117/87
f 97/166/125 98/164/123 130/117/87 129/114/84
f 105/159/118 97/166/125 129/114/84 137/113/83
f 91/170/115 104/169/127 136/103/73 123/111/81
f 95/174/129 96/173/119 128/109/79 127/107/77
f 94/176/131 95/174/129 127/107/77 126/104/74
f 104/169/127 94/176/131 126/104/74 136/103/73
f 103/180/122 102/179/133 134/93/63 135/101/71
f 93/184/135 101/183/114 133/99/69 125/97/67
f 92/186/137 93/184/135 125/97/67 124/94/64
f 102/179/133 92/186/137 124/94/64 134/93/63
