# Blender 4.5.4 LTS
# www.blender.org
mtllib right_mas.mtl
o masunya.002
v -2.037396 -0.314868 0.113684
v -2.021793 -0.150955 -0.067169
v -1.924945 -0.127840 0.292895
v -1.909341 0.036072 0.112042
v 1.589075 -0.491848 -0.206875
v -1.577641 -0.319317 -0.118393
v -1.841210 -0.225874 -0.111412
v -2.088183 -0.164611 -0.043711
v -2.124567 -0.203352 0.003249
v -2.097440 -0.261860 0.063589
v -2.003965 -0.144511 0.269394
v -2.065531 -0.189262 0.222732
v -2.070683 -0.255474 0.163068
v -2.047573 -0.061027 -0.054360
v -2.041277 0.017194 -0.007948
v -1.980855 0.049936 0.051966
v -1.959328 0.049698 0.161641
v -1.987472 0.024660 0.221732
v -1.968585 -0.047552 0.268941
v 1.698553 -0.293738 0.233834
v -1.454490 -0.158636 0.313263
v -1.732880 -0.148619 0.298258
v -1.774742 -0.402205 0.098380
v -1.504602 -0.472582 0.143535
v 1.714813 -0.625385 0.060644
v -1.799348 0.027712 0.088465
v -1.527528 -0.005372 0.051335
v 1.572815 -0.160201 -0.033685
v 1.688020 -0.641829 -0.024290
v 1.653811 -0.620921 -0.105520
v 1.619260 -0.568805 -0.170584
v -1.532928 -0.481374 0.060304
v -1.559961 -0.453540 -0.019228
v -1.572859 -0.397583 -0.082893
v -1.812957 -0.394769 0.024726
v -1.848640 -0.355658 -0.041865
v -1.849635 -0.297467 -0.091041
v -2.181358 -0.139121 0.102407
v -2.218193 -0.066338 0.042006
v -2.171492 -0.035476 -0.011949
v -2.185929 -0.058637 0.161957
v -2.224238 0.022317 0.101512
v -2.175532 0.050575 0.041459
v -2.110253 -0.020860 0.215725
v -2.143268 0.058275 0.161411
v -2.100387 0.082784 0.101369
v -1.835399 -0.002649 0.015682
v -1.865428 -0.062341 -0.048630
v -1.858499 -0.142581 -0.094613
v -1.553889 -0.054204 -0.023994
v -1.575734 -0.132085 -0.082664
v -1.581286 -0.225840 -0.116785
v 1.558221 -0.216609 -0.110515
v 1.556178 -0.301078 -0.170377
v 1.567113 -0.397972 -0.205225
v -1.773929 -0.366936 0.172316
v -1.774731 -0.302950 0.237638
v -1.750829 -0.227004 0.282612
v -1.487658 -0.422308 0.218978
v -1.475229 -0.342986 0.277764
v -1.460261 -0.250673 0.311769
v 1.728224 -0.569076 0.137554
v 1.729083 -0.484708 0.197496
v 1.719332 -0.387713 0.232264
v -1.759693 -0.072118 0.279039
v -1.791518 -0.009633 0.230873
v -1.796371 0.025184 0.163273
v -1.468688 -0.078929 0.277878
v -1.491002 -0.021532 0.214328
v -1.508619 0.004861 0.134680
v 1.667185 -0.216881 0.197623
v 1.631450 -0.164864 0.132638
v 1.598425 -0.143856 0.051329
v -0.221762 -0.611933 -0.115237
v -0.187761 -0.634881 -0.035672
v -0.249593 -0.558334 -0.179191
v -0.271313 -0.480732 -0.214926
v -0.158229 -0.620727 0.047554
v -0.293517 -0.291650 -0.178893
v -0.283137 -0.209170 -0.120283
v -0.287924 -0.387242 -0.213196
v -0.262557 -0.155059 -0.044998
v -0.137961 -0.484225 0.182170
v -0.142996 -0.566661 0.123199
v -0.138208 -0.388589 0.216112
v -0.149473 -0.295054 0.217482
v -0.209717 -0.163942 0.118513
v -0.176539 -0.217497 0.182108
v -0.238371 -0.140950 0.038589
v -0.871159 -0.531302 -0.048870
v -0.897656 -0.478196 -0.112270
v -0.918103 -0.401305 -0.147726
v -0.930887 -0.132355 -0.053942
v -0.909431 -0.078758 0.020570
v -0.792075 -0.486421 0.187247
v -0.825306 -0.140580 0.245575
v -0.836421 -0.554003 0.029862
v -0.806105 -0.539956 0.112234
v -0.942238 -0.214039 -0.111926
v -0.935628 -0.308705 -0.145957
v -0.788149 -0.404798 0.245732
v -0.787334 -0.310071 0.279262
v -0.797433 -0.217410 0.280531
v -0.859228 -0.087536 0.182675
v -0.886540 -0.064773 0.103443
v 0.485622 -0.670128 -0.103978
v 0.513206 -0.653729 -0.019898
v 0.353967 -0.332638 -0.248632
v 0.365846 -0.428532 -0.283207
v 0.525273 -0.514568 0.115836
v 0.516650 -0.418400 0.150192
v 0.497099 -0.325206 0.151661
v 0.428544 -0.197685 0.051579
v 0.396873 -0.176804 -0.029038
v 0.450697 -0.649521 -0.184375
v 0.417514 -0.597795 -0.248884
v 0.388653 -0.521451 -0.284897
v 0.357039 -0.248889 -0.189396
v 0.372545 -0.192927 -0.113338
v 0.525458 -0.598042 0.056380
v 0.464982 -0.249136 0.115869
v -0.511983 -0.590397 -0.013888
v -0.482058 -0.576297 0.068912
v -0.617769 -0.248800 -0.156392
v -0.611668 -0.343929 -0.190559
v -0.462946 -0.440467 0.202968
v -0.462662 -0.345285 0.236705
v -0.473344 -0.252187 0.238024
v -0.534364 -0.121694 0.139612
v -0.562347 -0.098816 0.060034
v -0.546352 -0.567572 -0.093036
v -0.573516 -0.514220 -0.156713
v -0.594599 -0.436974 -0.192308
v -0.606903 -0.166718 -0.098095
v -0.585885 -0.112864 -0.023196
v -0.467427 -0.522496 0.144241
v -0.500814 -0.174993 0.202859
v -1.187948 -0.485719 -0.026652
v -1.210212 -0.432861 -0.091118
v -1.228020 -0.356324 -0.127486
v -1.246476 -0.088680 -0.035017
v -1.228755 -0.035340 0.040215
v -1.121947 -0.441035 0.212363
v -1.158211 -0.096854 0.268464
v -1.157269 -0.508297 0.053501
v -1.131184 -0.494304 0.137034
v -1.255074 -0.169967 -0.093260
v -1.246074 -0.264170 -0.126704
v -1.121833 -0.359818 0.270703
v -1.122349 -0.265545 0.304050
v -1.131919 -0.173320 0.304735
v -1.188959 -0.044065 0.204095
v -1.211154 -0.021417 0.123844
v 0.123958 -0.635604 -0.141805
v 0.091460 -0.584073 -0.206037
v 0.063259 -0.508035 -0.241910
v 0.031266 -0.236812 -0.146838
v 0.047229 -0.181073 -0.071167
v 0.198892 -0.584308 0.097791
v 0.138698 -0.237047 0.156989
v 0.159242 -0.656059 -0.061824
v 0.187221 -0.639685 0.021829
v 0.027681 -0.320201 -0.205761
v 0.040031 -0.415594 -0.240201
v 0.198186 -0.501281 0.157004
v 0.190127 -0.405526 0.191153
v 0.171191 -0.312723 0.192572
v 0.101909 -0.185878 0.093047
v 0.070916 -0.165061 0.012776
v 0.812968 -0.655876 -0.097213
v 0.840154 -0.639455 -0.012703
v 0.681219 -0.316744 -0.242589
v 0.692622 -0.413141 -0.277302
v 0.853330 -0.499530 0.123594
v 0.844139 -0.402946 0.158157
v 0.823970 -0.309358 0.159677
v 0.756146 -0.181156 0.059034
v 0.723793 -0.160211 -0.021931
v 0.778403 -0.635118 -0.178030
v 0.744532 -0.583195 -0.242818
v 0.715004 -0.506542 -0.278971
v 0.683772 -0.232633 -0.183038
v 0.698820 -0.176446 -0.106591
v 0.852989 -0.583455 0.063893
v 0.792230 -0.232892 0.123674
vn -0.1077 -0.9939 -0.0244
vn -0.1247 -0.8917 -0.4351
vn -0.1654 -0.8709 -0.4629
vn -0.1736 -0.9837 -0.0463
vn -0.1128 -0.6182 -0.7779
vn -0.1274 -0.5930 -0.7951
vn -0.3398 -0.7563 -0.5590
vn -0.3430 -0.9169 -0.2041
vn -0.2609 -0.4533 -0.8523
vn -0.0717 -0.2068 -0.9758
vn -0.0662 -0.1879 -0.9799
vn -0.1437 -0.0618 -0.9877
vn -0.2596 -0.0089 -0.9657
vn -0.4485 -0.2382 -0.8614
vn -0.6383 -0.5703 -0.5171
vn -0.6320 -0.7663 -0.1159
vn -0.3115 -0.9117 0.2679
vn -0.4366 -0.8648 0.2480
vn -0.1529 -0.9145 0.3747
vn -0.0727 -0.9120 0.4037
vn -0.8531 -0.4699 0.2266
vn -0.9157 -0.1638 -0.3671
vn -0.8313 0.5347 0.1519
vn -0.7511 -0.1027 0.6522
vn -0.4457 0.2729 -0.8526
vn -0.3175 0.7785 -0.5414
vn -0.3048 0.7737 0.5554
vn -0.4142 0.2557 0.8735
vn -0.0671 0.9960 -0.0586
vn -0.5008 -0.6648 0.5542
vn -0.1415 0.3320 -0.9326
vn -0.0112 0.6702 -0.7421
vn 0.1369 0.9061 -0.4003
vn 0.1718 0.9798 -0.1026
vn 0.1229 0.9623 0.2425
vn -0.0368 0.7181 0.6949
vn -0.1365 0.3578 0.9238
vn -0.3093 -0.2012 0.9294
vn -0.1231 -0.0100 0.9923
vn -0.4470 -0.4481 0.7742
vn 0.1073 0.8115 -0.5745
vn 0.0518 0.5768 -0.8153
vn 0.0286 0.4968 -0.8674
vn 0.0528 0.7330 -0.6782
vn -0.0539 0.2804 -0.9584
vn -0.0056 0.2082 -0.9781
vn 0.0089 0.6922 -0.7216
vn 0.0303 0.4643 -0.8852
vn 0.3583 0.4560 -0.8147
vn 0.3391 0.6475 -0.6824
vn 0.0481 0.1943 -0.9798
vn 0.3709 0.2452 -0.8957
vn 0.1116 0.9678 -0.2255
vn 0.0698 -0.1777 -0.9816
vn 0.3930 -0.0415 -0.9186
vn -0.0100 0.9027 -0.4301
vn 0.3299 0.8394 -0.4318
vn 0.0770 0.9322 -0.3536
vn -0.2614 -0.7392 0.6206
vn -0.2197 -0.5547 0.8025
vn -0.0895 -0.4921 0.8659
vn -0.1231 -0.7219 0.6810
vn -0.1457 -0.3253 0.9343
vn -0.0499 -0.2146 0.9754
vn -0.0173 -0.6915 0.7222
vn -0.0263 -0.4630 0.8860
vn 0.3827 -0.4287 0.8184
vn 0.3828 -0.6598 0.6466
vn -0.0379 -0.1867 0.9817
vn 0.3736 -0.1461 0.9160
vn -0.0577 0.0397 0.9975
vn -0.0070 0.1576 0.9875
vn -0.0438 0.1889 0.9810
vn 0.3752 0.2156 0.9015
vn 0.0074 -0.9049 0.4255
vn 0.4002 -0.8621 0.3109
vn 0.0150 0.4612 0.8872
vn 0.0729 0.7737 0.6294
vn 0.0718 0.8574 0.5097
vn 0.0367 0.5629 0.8257
vn 0.1074 0.9743 0.1982
vn 0.0877 0.9917 0.0937
vn -0.0673 0.6324 0.7717
vn -0.0419 0.8865 0.4608
vn 0.3877 0.8573 0.3386
vn 0.3516 0.6692 0.6546
vn -0.0251 0.9992 0.0301
vn 0.3705 0.9280 -0.0382
vn 0.4702 -0.8801 -0.0657
vn 0.4594 -0.4933 -0.7387
vn 0.4839 -0.7514 -0.4486
vn 0.1213 0.2408 0.9630
vn 0.1589 0.6404 0.7514
vn 0.1173 0.6066 0.7863
vn 0.0775 0.2087 0.9749
vn 0.1159 0.9932 -0.0075
vn 0.0672 0.9055 -0.4190
vn 0.0673 0.9126 -0.4032
vn 0.0993 0.9949 0.0152
vn 0.1462 0.9065 0.3961
vn 0.1145 0.8974 0.4261
vn -0.0743 -0.9061 0.4165
vn -0.0154 -0.7061 0.7079
vn -0.0168 -0.7102 0.7038
vn -0.0650 -0.9079 0.4141
vn 0.0744 -0.1649 0.9835
vn 0.0447 -0.1807 0.9825
vn 0.0297 -0.4582 0.8883
vn 0.0131 -0.4650 0.8852
vn 0.0075 0.7001 -0.7140
vn 0.0211 0.6934 -0.7202
vn -0.0793 0.1717 -0.9819
vn -0.1174 -0.2125 -0.9701
vn -0.0988 -0.2062 -0.9735
vn -0.0598 0.1736 -0.9830
vn -0.0368 0.4599 -0.8872
vn -0.0184 0.4599 -0.8878
vn -0.0038 -0.9186 0.3951
vn -0.0665 -0.9978 0.0052
vn -0.0954 -0.9951 0.0257
vn -0.1201 -0.6169 -0.7778
vn -0.1284 -0.2340 -0.9637
vn -0.1095 -0.6359 -0.7639
vn -0.0964 -0.8897 -0.4463
vn -0.1068 -0.9024 -0.4175
vn 0.0543 0.7040 -0.7081
vn 0.0195 0.4659 -0.8846
vn -0.0288 0.4636 -0.8856
vn 0.0171 0.7016 -0.7124
vn -0.0200 0.1806 -0.9834
vn -0.0772 0.1727 -0.9819
vn -0.1293 -0.2210 -0.9667
vn 0.0880 0.9134 -0.3974
vn 0.0695 0.9139 -0.3999
vn -0.0322 -0.6990 0.7144
vn 0.0023 -0.4591 0.8884
vn 0.0344 -0.4670 0.8836
vn -0.0143 -0.7011 0.7129
vn 0.0350 -0.1704 0.9848
vn 0.0784 -0.1828 0.9800
vn 0.0714 0.2194 0.9730
vn 0.1230 0.2044 0.9711
vn -0.0730 -0.9054 0.4182
vn 0.0971 0.6295 0.7709
vn 0.1136 0.8898 0.4420
vn 0.1485 0.8897 0.4317
vn 0.1443 0.6307 0.7625
vn 0.1120 0.9931 0.0347
vn 0.1221 0.9921 0.0302
vn -0.1339 -0.9910 -0.0049
vn -0.1235 -0.9921 0.0226
vn -0.1559 -0.6026 -0.7827
vn -0.1526 -0.6388 -0.7541
vn -0.1560 -0.8816 -0.4455
vn -0.1494 -0.9021 -0.4050
vn 0.0298 -0.9954 -0.0910
vn 0.0257 -0.8801 -0.4741
vn -0.0180 -0.9146 -0.4041
vn 0.0186 -0.9990 -0.0409
vn 0.0354 -0.5899 -0.8067
vn -0.0376 -0.6560 -0.7539
vn -0.0518 -0.2435 -0.9685
vn 0.0336 -0.9223 0.3851
vn 0.1069 0.2459 0.9634
vn 0.1231 0.6369 0.7610
vn 0.0373 0.6049 0.7955
vn 0.0326 0.2090 0.9774
vn 0.0584 0.9983 0.0043
vn 0.0183 0.9128 -0.4081
vn -0.0287 0.9112 -0.4109
vn -0.0149 0.9998 0.0115
vn 0.0909 0.9088 0.4071
vn 0.0058 0.9015 0.4328
vn 0.0445 -0.7019 0.7109
vn 0.0361 -0.7218 0.6912
vn 0.0902 -0.1561 0.9836
vn 0.0403 -0.1830 0.9823
vn 0.0676 -0.4495 0.8907
vn 0.0389 -0.4693 0.8822
vn -0.0351 0.6986 -0.7147
vn -0.0408 0.6879 -0.7246
vn -0.0946 0.1555 -0.9833
vn -0.0624 0.1662 -0.9841
vn -0.0658 0.4550 -0.8881
vn -0.0551 0.4500 -0.8913
vt 0.575175 0.968310
vt 0.574309 0.978037
vt 0.572267 0.978060
vt 0.573157 0.968380
vt 0.574849 0.988030
vt 0.572832 0.988004
vt 0.557140 0.978366
vt 0.558524 0.969532
vt 0.558228 0.987427
vt 0.576376 0.996608
vt 0.574381 0.996540
vt 0.560288 0.995039
vt 0.551444 0.993120
vt 0.547603 0.987259
vt 0.545764 0.978845
vt 0.547879 0.970572
vt 0.560825 0.962610
vt 0.551910 0.964994
vt 0.574975 0.960645
vt 0.576973 0.960538
vt 0.071030 0.293332
vt 0.070251 0.302179
vt 0.060472 0.301584
vt 0.061804 0.292292
vt 0.069950 0.311162
vt 0.060667 0.311080
vt 0.052220 0.301192
vt 0.053919 0.292396
vt 0.052839 0.310225
vt 0.079350 0.288823
vt 0.080011 0.294537
vt 0.073006 0.286337
vt 0.080011 0.302891
vt 0.078998 0.311266
vt 0.077642 0.317020
vt 0.071049 0.318648
vt 0.626219 0.763795
vt 0.627036 0.756045
vt 0.635422 0.757825
vt 0.635132 0.766377
vt 0.643768 0.756174
vt 0.644050 0.763933
vt 0.979499 0.815502
vt 0.986717 0.822919
vt 0.984077 0.827402
vt 0.978185 0.824223
vt 0.970590 0.812884
vt 0.969765 0.822488
vt 0.961747 0.815052
vt 0.961529 0.823801
vt 0.601864 0.660433
vt 0.603121 0.652394
vt 0.610340 0.659904
vt 0.607744 0.663828
vt 0.593445 0.658653
vt 0.594210 0.649787
vt 0.585195 0.660205
vt 0.585356 0.652151
vt 0.644592 0.743592
vt 0.635660 0.744311
vt 0.635846 0.727693
vt 0.645635 0.727575
vt 0.626649 0.743453
vt 0.625958 0.727423
vt 0.646096 0.712591
vt 0.635970 0.712506
vt 0.635988 0.710354
vt 0.646162 0.710468
vt 0.625740 0.712434
vt 0.625709 0.710310
vt 0.649463 0.752804
vt 0.651751 0.742851
vt 0.621262 0.752586
vt 0.619235 0.742600
vt 0.617649 0.727297
vt 0.617148 0.712510
vt 0.617077 0.710415
vt 0.654373 0.712797
vt 0.654477 0.710704
vt 0.653641 0.727575
vt 0.584101 0.672947
vt 0.592906 0.672348
vt 0.592569 0.689033
vt 0.582921 0.689019
vt 0.601976 0.673192
vt 0.602524 0.689287
vt 0.582420 0.703995
vt 0.592400 0.704216
vt 0.592376 0.706367
vt 0.582349 0.706117
vt 0.602700 0.704272
vt 0.602724 0.706396
vt 0.579649 0.663444
vt 0.577241 0.673451
vt 0.609635 0.673894
vt 0.611114 0.689242
vt 0.611582 0.704020
vt 0.611649 0.706114
vt 0.574497 0.703513
vt 0.574389 0.705604
vt 0.575258 0.688752
vt 0.960400 0.836845
vt 0.969187 0.836530
vt 0.968831 0.853244
vt 0.959204 0.852923
vt 0.978262 0.837298
vt 0.978792 0.853420
vt 0.958697 0.867749
vt 0.968656 0.868283
vt 0.968631 0.870414
vt 0.958625 0.869850
vt 0.978962 0.868263
vt 0.978986 0.870366
vt 0.956003 0.826690
vt 0.953581 0.836757
vt 0.985951 0.837578
vt 0.987415 0.852902
vt 0.987879 0.867526
vt 0.987945 0.869598
vt 0.950821 0.866586
vt 0.950713 0.868654
vt 0.951586 0.851994
vt 0.589302 0.967817
vt 0.590961 0.959783
vt 0.588964 0.988214
vt 0.588606 0.977877
vt 0.951259 0.858241
vt 0.958987 0.859271
vt 0.958915 0.861386
vt 0.951150 0.860324
vt 0.978864 0.859775
vt 0.987614 0.859163
vt 0.987680 0.861250
vt 0.978889 0.861893
vt 0.968756 0.859683
vt 0.968731 0.861829
vt 0.574932 0.695071
vt 0.582707 0.695431
vt 0.582635 0.697568
vt 0.574823 0.697178
vt 0.602599 0.695703
vt 0.611315 0.695569
vt 0.611381 0.697678
vt 0.602624 0.697841
vt 0.592497 0.695534
vt 0.592472 0.697700
vt 0.653954 0.721248
vt 0.645832 0.721160
vt 0.645898 0.719022
vt 0.654059 0.719139
vt 0.625865 0.721006
vt 0.617435 0.720966
vt 0.617363 0.718856
vt 0.625834 0.718867
vt 0.635899 0.721191
vt 0.635917 0.719024
vt 0.584966 0.960106
vt 0.583247 0.968028
vt 0.581229 0.968099
vt 0.582968 0.960214
vt 0.582915 0.988136
vt 0.584358 0.996879
vt 0.582362 0.996811
vt 0.580898 0.988109
vt 0.582478 0.977945
vt 0.580436 0.977968
vt 0.645701 0.725437
vt 0.635864 0.725526
vt 0.635882 0.723358
vt 0.645766 0.723299
vt 0.625927 0.725284
vt 0.625896 0.723145
vt 0.617578 0.725186
vt 0.617506 0.723076
vt 0.653745 0.725466
vt 0.653850 0.723357
vt 0.582850 0.691156
vt 0.592545 0.691200
vt 0.592521 0.693367
vt 0.582778 0.693293
vt 0.602549 0.691426
vt 0.602574 0.693564
vt 0.611181 0.691351
vt 0.611248 0.693460
vt 0.575149 0.690858
vt 0.575041 0.692965
vt 0.959131 0.855039
vt 0.968806 0.855390
vt 0.968781 0.857536
vt 0.959059 0.857155
vt 0.978816 0.855538
vt 0.978840 0.857656
vt 0.987482 0.854989
vt 0.987548 0.857076
vt 0.951477 0.854076
vt 0.951368 0.856159
vt 0.580970 0.960322
vt 0.579211 0.968169
vt 0.577193 0.968239
vt 0.578971 0.960430
vt 0.578882 0.988083
vt 0.580367 0.996743
vt 0.578372 0.996675
vt 0.576865 0.988057
vt 0.578394 0.977991
vt 0.576351 0.978014
vt 0.587298 0.967887
vt 0.586578 0.977900
vt 0.584521 0.977923
vt 0.585265 0.967958
vt 0.586962 0.988188
vt 0.584931 0.988162
vt 0.588363 0.997015
vt 0.586353 0.996947
vt 0.588977 0.959890
vt 0.586964 0.959998
vt 0.951040 0.862406
vt 0.958842 0.863502
vt 0.958770 0.865618
vt 0.950931 0.864489
vt 0.978913 0.864011
vt 0.987746 0.863337
vt 0.987812 0.865424
vt 0.978937 0.866129
vt 0.968706 0.863975
vt 0.968681 0.866121
vt 0.574715 0.699284
vt 0.582564 0.699705
vt 0.582492 0.701842
vt 0.574606 0.701391
vt 0.602649 0.699980
vt 0.611448 0.699787
vt 0.611515 0.701896
vt 0.602674 0.702118
vt 0.592448 0.699867
vt 0.592424 0.702034
vt 0.654163 0.717030
vt 0.645964 0.716884
vt 0.646030 0.714745
vt 0.654268 0.714921
vt 0.625803 0.716728
vt 0.617291 0.716745
vt 0.617220 0.714635
vt 0.625771 0.714589
vt 0.635935 0.716856
vt 0.635953 0.714689
vt 0.590344 0.997082
s 1
usemtl Material.003
f 145/1/1 32/4/4 33/3/3 138/2/2
f 138/2/2 33/3/3 34/6/6 139/5/5
f 32/4/4 35/8/8 36/7/7 33/3/3
f 33/3/3 36/7/7 37/9/9 34/6/6
f 139/5/5 34/6/6 6/11/11 140/10/10
f 34/6/6 37/9/9 7/12/12 6/11/11
f 37/9/9 8/14/14 2/13/13 7/12/12
f 36/7/7 9/15/15 8/14/14 37/9/9
f 35/8/8 10/16/16 9/15/15 36/7/7
f 23/17/17 1/18/18 10/16/16 35/8/8
f 24/19/19 23/17/17 35/8/8 32/4/4
f 146/20/20 24/19/19 32/4/4 145/1/1
f 38/21/21 41/24/24 42/23/23 39/22/22
f 39/22/22 42/23/23 43/26/26 40/25/25
f 41/24/24 44/28/28 45/27/27 42/23/23
f 42/23/23 45/27/27 46/29/29 43/26/26
f 1/30/18 13/32/30 38/21/21 10/31/16
f 10/31/16 38/21/21 39/22/22 9/33/15
f 9/33/15 39/22/22 40/25/25 8/34/14
f 8/34/14 40/25/25 14/36/31 2/35/13
f 40/37/25 43/40/26 15/39/32 14/38/31
f 43/40/26 46/42/29 16/41/33 15/39/32
f 46/43/29 17/46/35 4/45/34 16/44/33
f 45/47/27 18/48/36 17/46/35 46/43/29
f 44/49/28 19/50/37 18/48/36 45/47/27
f 11/51/38 3/54/39 19/53/37 44/52/28
f 12/55/40 11/51/38 44/52/28 41/56/24
f 13/57/30 12/55/40 41/56/24 38/58/21
f 47/59/41 50/62/44 51/61/43 48/60/42
f 48/60/42 51/61/43 52/64/46 49/63/45
f 182/65/47 53/68/50 54/67/49 172/66/48
f 172/66/48 54/67/49 55/70/52 173/69/51
f 4/71/34 26/72/53 47/59/41 16/41/33
f 16/41/33 47/59/41 48/60/42 15/39/32
f 15/39/32 48/60/42 49/63/45 14/38/31
f 14/38/31 49/63/45 7/74/12 2/73/13
f 49/63/45 52/64/46 6/75/11 7/74/12
f 173/69/51 55/70/52 5/77/55 181/76/54
f 183/78/56 28/79/57 53/68/50 182/65/47
f 26/72/53 27/80/58 50/62/44 47/59/41
f 56/81/59 59/84/62 60/83/61 57/82/60
f 57/82/60 60/83/61 61/86/64 58/85/63
f 184/87/65 62/90/68 63/89/67 174/88/66
f 174/88/66 63/89/67 64/92/70 175/91/69
f 1/93/18 23/94/17 56/81/59 13/57/30
f 13/57/30 56/81/59 57/82/60 12/55/40
f 12/55/40 57/82/60 58/85/63 11/51/38
f 11/51/38 58/85/63 22/95/71 3/54/39
f 58/85/63 61/86/64 21/96/72 22/95/71
f 175/91/69 64/92/70 20/98/74 176/97/73
f 171/99/75 25/100/76 62/90/68 184/87/65
f 23/94/17 24/101/19 59/84/62 56/81/59
f 65/102/77 68/105/80 69/104/79 66/103/78
f 66/103/78 69/104/79 70/107/82 67/106/81
f 185/108/83 71/111/86 72/110/85 177/109/84
f 177/109/84 72/110/85 73/113/88 178/112/87
f 3/114/39 22/115/71 65/102/77 19/50/37
f 19/50/37 65/102/77 66/103/78 18/48/36
f 18/48/36 66/103/78 67/106/81 17/46/35
f 17/46/35 67/106/81 26/116/53 4/45/34
f 67/106/81 70/107/82 27/117/58 26/116/53
f 178/112/87 73/113/88 28/119/57 183/118/56
f 176/120/73 20/121/74 71/111/86 185/108/83
f 22/115/71 21/122/72 68/105/80 65/102/77
f 29/123/89 30/126/91 31/125/90 5/77/55 55/70/52 54/67/49 53/68/50 28/119/57 73/113/88 72/110/85 71/111/86 20/98/74 64/92/70 63/89/67 62/90/68 25/124/76
f 128/127/92 86/130/95 88/129/94 137/128/93
f 130/131/96 89/134/99 82/133/98 135/132/97
f 129/135/100 87/136/101 89/134/99 130/131/96
f 137/128/93 88/129/94 87/136/101 129/135/100
f 123/137/102 78/140/105 84/139/104 136/138/103
f 127/141/106 85/144/107 86/143/95 128/142/92
f 126/145/108 83/146/109 85/144/107 127/141/106
f 136/138/103 84/139/104 83/146/109 126/145/108
f 135/147/97 82/150/98 80/149/111 134/148/110
f 125/151/112 81/154/115 77/153/114 133/152/113
f 124/155/116 79/156/117 81/154/115 125/151/112
f 134/148/110 80/149/111 79/156/117 124/155/116
f 162/157/118 78/160/105 75/159/120 161/158/119
f 155/161/121 76/164/123 77/163/114 156/162/122
f 154/165/124 74/166/125 76/164/123 155/161/121
f 161/158/119 75/159/120 74/166/125 154/165/124
f 141/167/126 93/170/129 99/169/128 147/168/127
f 147/168/127 99/169/128 100/172/131 148/171/130
f 148/171/130 100/172/131 92/174/132 140/173/10
f 142/175/133 94/176/134 93/170/129 141/167/126
f 143/177/135 95/180/138 101/179/137 149/178/136
f 149/178/136 101/179/137 102/182/140 150/181/139
f 150/181/139 102/182/140 103/184/142 151/183/141
f 146/185/20 98/186/143 95/180/138 143/177/135
f 144/187/144 96/190/147 104/189/146 152/188/145
f 152/188/145 104/189/146 105/192/149 153/191/148
f 153/191/148 105/192/149 94/194/134 142/193/133
f 151/195/141 103/196/142 96/190/147 144/187/144
f 123/197/102 98/200/143 97/199/151 122/198/150
f 132/201/152 91/204/153 92/203/132 133/202/113
f 131/205/154 90/206/155 91/204/153 132/201/152
f 122/198/150 97/199/151 90/206/155 131/205/154
f 170/207/156 106/210/159 115/209/158 179/208/157
f 179/208/157 115/209/158 116/212/161 180/211/160
f 180/211/160 116/212/161 117/214/162 181/213/54
f 171/215/75 107/216/163 106/210/159 170/207/156
f 167/217/164 112/220/167 121/219/166 160/218/165
f 169/221/168 114/224/171 119/223/170 158/222/169
f 168/225/172 113/226/173 114/224/171 169/221/168
f 160/218/165 121/219/166 113/226/173 168/225/172
f 162/227/118 107/230/163 120/229/175 159/228/174
f 166/231/176 111/234/177 112/233/167 167/232/164
f 165/235/178 110/236/179 111/234/177 166/231/176
f 159/228/174 120/229/175 110/236/179 165/235/178
f 158/237/169 119/240/170 118/239/181 157/238/180
f 164/241/182 109/244/183 117/243/162 156/242/122
f 163/245/184 108/246/185 109/244/183 164/241/182
f 157/238/180 118/239/181 108/246/185 163/245/184
f 75/159/120 122/198/150 131/205/154 74/166/125
f 74/166/125 131/205/154 132/201/152 76/164/123
f 76/164/123 132/201/152 133/202/113 77/163/114
f 78/160/105 123/197/102 122/198/150 75/159/120
f 93/170/129 134/148/110 124/155/116 99/169/128
f 99/169/128 124/155/116 125/151/112 100/172/131
f 100/172/131 125/151/112 133/152/113 92/174/132
f 94/176/134 135/147/97 134/148/110 93/170/129
f 95/180/138 136/138/103 126/145/108 101/179/137
f 101/179/137 126/145/108 127/141/106 102/182/140
f 102/182/140 127/141/106 128/142/92 103/184/142
f 98/186/143 123/137/102 136/138/103 95/180/138
f 96/190/147 137/128/93 129/135/100 104/189/146
f 104/189/146 129/135/100 130/131/96 105/192/149
f 105/192/149 130/131/96 135/132/97 94/194/134
f 103/196/142 128/127/92 137/128/93 96/190/147
f 21/122/72 151/195/141 144/187/144 68/105/80
f 70/107/82 153/191/148 142/193/133 27/117/58
f 69/104/79 152/188/145 153/191/148 70/107/82
f 68/105/80 144/187/144 152/188/145 69/104/79
f 24/101/19 146/185/20 143/177/135 59/84/62
f 61/86/64 150/181/139 151/183/141 21/96/72
f 60/83/61 149/178/136 150/181/139 61/86/64
f 59/84/62 143/177/135 149/178/136 60/83/61
f 27/80/58 142/175/133 141/167/126 50/62/44
f 52/64/46 148/171/130 140/173/10 6/75/11
f 51/61/43 147/168/127 148/171/130 52/64/46
f 50/62/44 141/167/126 147/168/127 51/61/43
f 98/200/143 146/20/20 145/1/1 97/199/151
f 91/204/153 139/5/5 140/10/10 92/203/132
f 90/206/155 138/2/2 139/5/5 91/204/153
f 97/199/151 145/1/1 138/2/2 90/206/155
f 80/149/111 157/238/180 163/245/184 79/156/117
f 79/156/117 163/245/184 164/241/182 81/154/115
f 81/154/115 164/241/182 156/242/122 77/153/114
f 82/150/98 158/237/169 157/238/180 80/149/111
f 84/139/104 159/228/174 165/235/178 83/146/109
f 83/146/109 165/235/178 166/231/176 85/144/107
f 85/144/107 166/231/176 167/232/164 86/143/95
f 78/140/105 162/227/118 159/228/174 84/139/104
f 88/129/94 160/218/165 168/225/172 87/136/101
f 87/136/101 168/225/172 169/221/168 89/134/99
f 89/134/99 169/221/168 158/222/169 82/133/98
f 86/130/95 167/217/164 160/218/165 88/129/94
f 106/210/159 161/158/119 154/165/124 115/209/158
f 115/209/158 154/165/124 155/161/121 116/212/161
f 116/212/161 155/161/121 156/162/122 117/214/162
f 107/216/163 162/157/118 161/158/119 106/210/159
f 25/124/76 171/215/75 170/207/156 29/123/89
f 31/125/90 180/211/160 181/213/54 5/247/55
f 30/126/91 179/208/157 180/211/160 31/125/90
f 29/123/89 170/207/156 179/208/157 30/126/91
f 112/220/167 176/120/73 185/108/83 121/219/166
f 114/224/171 178/112/87 183/118/56 119/223/170
f 113/226/173 177/109/84 178/112/87 114/224/171
f 121/219/166 185/108/83 177/109/84 113/226/173
f 107/230/163 171/99/75 184/87/65 120/229/175
f 111/234/177 175/91/69 176/97/73 112/233/167
f 110/236/179 174/88/66 175/91/69 111/234/177
f 120/229/175 184/87/65 174/88/66 110/236/179
f 119/240/170 183/78/56 182/65/47 118/239/181
f 109/244/183 173/69/51 181/76/54 117/243/162
f 108/246/185 172/66/48 173/69/51 109/244/183
f 118/239/181 182/65/47 172/66/48 108/246/185
